<svg height="452pt" viewBox="-28 0 452 452.98045" width="452pt" xmlns="http://www.w3.org/2000/svg"><path d="m65.308594 261.582031c-1.945313 23.125-26.046875 26.777344-26.046875 26.777344 20.691406.972656 25.847656 28.117187 25.847656 28.117187.445313-19.351562 26.644531-28.402343 26.644531-28.402343-19.628906-1.171875-26.445312-26.492188-26.445312-26.492188zm0 0" fill="#d7e057"/><path d="m91.933594 285.078125c-17.210938-1.03125-23.664063-24.046875-23.726563-24.28125-.378906-1.40625-1.707031-2.328125-3.167969-2.203125-1.449218.128906-2.59375 1.28125-2.714843 2.734375-1.722657 20.429687-22.628907 23.925781-23.511719 24.0625-1.527344.230469-2.625 1.582031-2.546875 3.125.082031 1.539063 1.316406 2.765625 2.855469 2.839844 18.058594.851562 23 25.4375 23.046875 25.683593.273437 1.421876 1.519531 2.433594 2.945312 2.433594.082031 0 .167969 0 .25-.007812 1.53125-.128906 2.714844-1.386719 2.75-2.917969.386719-17.019531 24.382813-25.554687 24.625-25.636719 1.351563-.472656 2.183594-1.828125 1.988281-3.246094-.195312-1.417968-1.363281-2.5-2.792968-2.585937zm-27.132813 20.691406c-2.710937-6.257812-7.417969-13.8125-15.171875-17.753906 5.863282-2.808594 12.816406-7.824219 16.402344-16.546875 3.101562 6.144531 8.398438 13.761719 16.667969 17.449219-6.015625 3.277343-13.84375 8.808593-17.898438 16.851562zm0 0" fill="#3a312a"/><path d="m21.914062 295.542969c-1.378906 16.359375-18.425781 18.941406-18.425781 18.941406 14.636719.6875 18.285157 19.886719 18.285157 19.886719.3125-13.6875 18.84375-20.089844 18.84375-20.089844-13.882813-.832031-18.703126-18.738281-18.703126-18.738281zm0 0" fill="#d7e057"/><path d="m40.796875 311.285156c-11.535156-.6875-15.945313-16.371094-15.988281-16.527344-.378906-1.40625-1.722656-2.332031-3.164063-2.207031-1.449219.132813-2.597656 1.289063-2.71875 2.738281-1.15625 13.742188-15.292969 16.132813-15.886719 16.226563-1.523437.230469-2.625 1.582031-2.542968 3.121094.078125 1.542969 1.3125 2.769531 2.855468 2.84375 12.070313.566406 15.445313 17.289062 15.476563 17.449219.273437 1.425781 1.519531 2.441406 2.945313 2.441406.082031 0 .167968-.003906.25-.011719 1.53125-.125 2.71875-1.386719 2.753906-2.921875.257812-11.417969 16.660156-17.265625 16.824218-17.324219 1.351563-.46875 2.183594-1.824219 1.992188-3.242187-.203125-1.417969-1.371094-2.5-2.796875-2.585938zm-19.171875 13.589844c-1.847656-3.769531-4.679688-7.890625-8.894531-10.558594 3.714843-2.082031 7.394531-5.257812 9.742187-9.832031 2.113282 3.746094 5.308594 7.90625 9.882813 10.449219-3.699219 2.199218-7.976563 5.476562-10.730469 9.941406zm0 0" fill="#3a312a"/><path d="m21.914062 242.226562c-1.378906 16.359376-18.425781 18.941407-18.425781 18.941407 14.636719.6875 18.285157 19.886719 18.285157 19.886719.3125-13.6875 18.84375-20.089844 18.84375-20.089844-13.882813-.832032-18.703126-18.738282-18.703126-18.738282zm0 0" fill="#d7e057"/><path d="m40.796875 257.96875c-11.535156-.6875-15.945313-16.367188-15.988281-16.527344-.378906-1.402344-1.722656-2.328125-3.164063-2.203125-1.449219.128907-2.597656 1.285157-2.71875 2.734375-1.15625 13.742188-15.292969 16.132813-15.886719 16.226563-1.523437.230469-2.625 1.582031-2.542968 3.125.078125 1.539062 1.3125 2.765625 2.855468 2.839843 12.070313.570313 15.445313 17.289063 15.476563 17.453126.273437 1.421874 1.519531 2.4375 2.945313 2.4375.082031 0 .167968 0 .25-.007813 1.53125-.128906 2.71875-1.386719 2.753906-2.921875.257812-11.421875 16.660156-17.269531 16.824218-17.324219 1.351563-.46875 2.183594-1.828125 1.992188-3.246093-.203125-1.417969-1.371094-2.5-2.796875-2.585938zm-19.171875 13.589844c-1.847656-3.769532-4.679688-7.890625-8.894531-10.558594 3.714843-2.082031 7.394531-5.257812 9.742187-9.832031 2.113282 3.75 5.308594 7.910156 9.882813 10.445312-3.699219 2.203125-7.976563 5.484375-10.730469 9.945313zm0 0" fill="#3a312a"/><path d="m375.21875 375.488281c-22.328125 0-42.707031-12.25-53.183594-31.972656l-2.921875-5.492187c-4.660156-8.777344-15.558593-12.117188-24.339843-7.449219-8.777344 4.664062-12.113282 15.5625-7.449219 24.339843l2.917969 5.492188c16.738281 31.507812 49.296874 51.082031 84.976562 51.082031 9.941406 0 18-8.058593 18-18 0-9.945312-8.054688-18-18-18zm0 0" fill="#87796f"/><path d="m375.21875 372.488281c-21.214844 0-40.582031-11.640625-50.535156-30.378906l-2.917969-5.496094c-2.632813-4.953125-7.035156-8.585937-12.398437-10.226562-5.367188-1.644531-11.042969-1.097657-16 1.535156-4.953126 2.632813-8.585938 7.035156-10.226563 12.402344-1.640625 5.363281-1.097656 11.042969 1.539063 16l2.917968 5.492187c17.261719 32.488282 50.835938 52.671875 87.625 52.671875 11.578125 0 21-9.417969 21-21-.003906-11.582031-9.421875-21-21.003906-21zm0 36c-34.558594 0-66.109375-18.964843-82.328125-49.488281l-2.917969-5.496094c-1.875-3.539062-2.269531-7.59375-1.097656-11.425781 1.175781-3.832031 3.769531-6.976563 7.308594-8.859375 2.199218-1.167969 4.597656-1.761719 7.019531-1.761719 1.476563 0 2.960937.222657 4.40625.664063 3.832031 1.175781 6.976563 3.765625 8.855469 7.304687l2.921875 5.496094c10.996093 20.703125 32.390625 33.5625 55.832031 33.5625 8.273438 0 15 6.726563 15 15s-6.726562 15.003906-15 15.003906zm0 0" fill="#3a312a"/><path d="m320.070312 403.632812c.386719-1.339843.742188-2.734374 1.101563-4.132812 1.914063-6.628906 3.265625-14.121094 4.003906-22.554688.789063-7.144531 1.238281-14.652343 1.238281-22.433593 0-32.78125-7.5-61.128907-18.417968-74.808594-17.839844-36.707031-47.355469-60.726563-80.777344-60.726563-33.417969 0-62.933594 24.019532-80.773438 60.726563-10.652343 13.347656-18.03125 40.671875-18.386718 72.4375l1.402344 26.601563c.765624 7.691406 2.03125 14.613281 3.808593 20.757812.355469 1.398438.710938 2.792969 1.101563 4.136719-5.648438 4.933593-9.109375 11.394531-9.109375 18.496093 0 10.144532 7 19.035157 17.480469 23.886719 3.539062 1.648438 7.476562 2.84375 11.675781 3.457031 2.207031.320313 4.472656.5 6.800781.5s4.59375-.179687 6.800781-.5c4.195313-.613281 8.136719-1.808593 11.675781-3.457031.40625-.1875.800782-.394531 1.195313-.59375 13.8125 3.59375 29.578125 4.550781 46.328125 4.550781s32.515625-.957031 46.332031-4.550781c.394531.199219.785157.40625 1.195313.59375 3.539062 1.648438 7.476562 2.84375 11.671875 3.457031 2.207031.320313 4.472656.5 6.800781.5s4.59375-.179687 6.804688-.5c4.195312-.613281 8.132812-1.808593 11.671874-3.457031 10.484376-4.851562 17.484376-13.746093 17.484376-23.886719 0-7.101562-3.460938-13.5625-9.109376-18.5zm0 0" fill="#87796f"/><path d="m323.449219 402.671875c.210937-.789063.410156-1.578125.601562-2.335937 1.988281-6.859376 3.371094-14.640626 4.109375-23.058594.832032-7.523438 1.257813-15.183594 1.257813-22.769532 0-32.363281-7.222657-61.585937-18.867188-76.410156-19.007812-38.910156-50.136719-62.125-83.332031-62.125-33.191406 0-64.320312 23.214844-83.328125 62.125-11.273437 14.359375-18.480469 42.664063-18.832031 74.011719-.015625 1.65625 1.3125 3.011719 2.96875 3.03125h.03125c1.644531 0 2.984375-1.320313 3-2.964844.335937-30.265625 7.132812-57.320312 17.730468-70.597656.140626-.171875.257813-.363281.355469-.5625 17.964844-36.96875 47.152344-59.039063 78.074219-59.039063 30.925781 0 60.117188 22.070313 78.078125 59.039063.097656.199219.214844.386719.355469.5625 10.789062 13.519531 17.765625 42.148437 17.765625 72.933594 0 7.363281-.410157 14.796875-1.230469 22.171875-.710938 8.101562-2.019531 15.496094-3.921875 22.078125-.347656 1.367187-.699219 2.734375-1.074219 4.042969-.324218 1.121093.03125 2.324218.910156 3.089843 5.207032 4.550781 8.082032 10.316407 8.082032 16.234375 0 8.558594-6.035156 16.667969-15.75 21.167969-3.367188 1.570313-7.011719 2.648437-10.835938 3.210937-4.292968.621094-8.464844.617188-12.742187.003907-3.832031-.566407-7.480469-1.644531-10.847657-3.214844-.265624-.125-.527343-.257813-.785156-.386719l-.324218-.164062c-.652344-.328125-1.398438-.40625-2.105469-.222656-11.835938 3.078124-25.890625 4.453124-45.574219 4.453124-19.679688 0-33.734375-1.375-45.570312-4.453124-.703126-.183594-1.449219-.105469-2.105469.222656l-.324219.164062c-.257812.132813-.515625.265625-.789062.390625-3.363282 1.566407-7.011719 2.648438-10.835938 3.210938-4.292969.617187-8.460938.617187-12.738281 0-3.832031-.5625-7.480469-1.644531-10.851563-3.214844-9.710937-4.496094-15.742187-12.605469-15.742187-21.164063 0-5.917968 2.871093-11.683593 8.082031-16.238281.878906-.765625 1.230469-1.96875.910156-3.089843-.378906-1.308594-.730468-2.675782-1.105468-4.136719-1.707032-5.917969-2.957032-12.722657-3.707032-20.222657-.164062-1.648437-1.613281-2.835937-3.28125-2.6875-1.648437.167969-2.855468 1.632813-2.6875 3.285157.785156 7.863281 2.101563 15.027343 3.882813 21.195312.207031.816407.417969 1.632813.628906 2.4375-5.640625 5.503907-8.726563 12.351563-8.726563 19.457031 0 10.925782 7.363282 21.121094 19.210938 26.609376 3.890625 1.8125 8.101562 3.058593 12.515625 3.710937 4.863281.703125 9.601563.703125 14.46875-.003906 4.40625-.648438 8.617187-1.894531 12.5-3.707031.09375-.042969.1875-.085938.277344-.128907 12.117187 3.015625 26.371093 4.367188 45.984375 4.367188 19.617187 0 33.871094-1.351563 45.984375-4.367188.089843.042969.179687.085938.269531.128907 3.890625 1.8125 8.101562 3.058593 12.515625 3.710937 2.429687.347656 4.863281.527344 7.230469.527344 2.371094 0 4.800781-.179688 7.238281-.53125 4.40625-.648438 8.617187-1.894531 12.5-3.703125 11.855469-5.492188 19.222656-15.6875 19.222656-26.613282.003907-7.109374-3.082031-13.953124-8.726562-19.460937zm0 0" fill="#3a312a"/><path d="m213.296875 403.632812c3.980469-13.78125 6.34375-30.746093 6.34375-49.125 0-46.140624-14.855469-83.535156-33.191406-83.535156-18.339844 0-33.195313 37.390625-33.195313 83.535156 0 18.378907 2.367188 35.34375 6.34375 49.125-5.648437 4.933594-9.109375 11.398438-9.109375 18.496094 0 10.144532 7 19.035156 17.480469 23.886719 3.542969 1.652344 7.480469 2.84375 11.675781 3.460937 2.207031.316407 4.472657.496094 6.800781.496094 2.328126 0 4.59375-.175781 6.804688-.496094 4.195312-.617187 8.132812-1.808593 11.675781-3.460937 10.480469-4.851563 17.480469-13.742187 17.480469-23.886719.003906-7.097656-3.460938-13.558594-9.109375-18.496094zm0 0" fill="#87796f"/><g fill="#3a312a"><path d="m216.683594 402.679688c3.902344-14.257813 5.957031-30.863282 5.957031-48.171876 0-48.523437-15.894531-86.535156-36.195313-86.535156-20.296874 0-36.195312 38.011719-36.195312 86.535156 0 17.308594 2.058594 33.914063 5.960938 48.171876-5.640626 5.503906-8.726563 12.347656-8.726563 19.453124 0 10.921876 7.367187 21.121094 19.214844 26.605469 3.890625 1.8125 8.101562 3.0625 12.515625 3.710938 2.429687.351562 4.863281.527343 7.230468.527343 2.367188 0 4.800782-.175781 7.238282-.527343 4.410156-.648438 8.617187-1.898438 12.496094-3.707031 11.859374-5.488282 19.222656-15.683594 19.222656-26.609376.003906-7.105468-3.078125-13.949218-8.71875-19.453124zm-13.027344 40.621093c-3.363281 1.566407-7.011719 2.648438-10.832031 3.210938-4.300781.617187-8.464844.613281-12.742188 0-3.832031-.5625-7.480469-1.644531-10.851562-3.214844-9.707031-4.496094-15.742188-12.605469-15.742188-21.164063 0-5.917968 2.871094-11.683593 8.082031-16.238281.878907-.765625 1.230469-1.96875.910157-3.089843-4.074219-14.117188-6.226563-30.816407-6.226563-48.292969 0-48.171875 15.613282-80.535157 30.195313-80.535157s30.195312 32.359376 30.195312 80.535157c0 17.476562-2.152343 34.175781-6.226562 48.292969-.324219 1.121093.03125 2.324218.910156 3.089843 5.207031 4.554688 8.082031 10.320313 8.082031 16.238281-.003906 8.558594-6.035156 16.667969-15.753906 21.167969zm0 0"/><path d="m175.796875 426.664062c-.433594-2.566406-4.121094-2.566406-4.554687 0l-3.269532 19.355469c3.539063 1.652344 7.476563 2.84375 11.671875 3.460938zm0 0"/><path d="m201.65625 426.664062c-.4375-2.566406-4.121094-2.566406-4.554688 0l-3.851562 22.8125c4.195312-.613281 8.132812-1.808593 11.675781-3.457031zm0 0"/></g><path d="m294.84375 403.632812c3.976562-13.78125 6.34375-30.746093 6.34375-49.125 0-46.140624-14.855469-83.535156-33.195312-83.535156-9.972657 0-18.910157 11.078125-24.996094 28.597656l-6.152344 26.003907c-1.320312 9.015625-2.046875 18.761719-2.046875 28.933593 0 18.378907 2.367187 35.34375 6.34375 49.125-5.648437 4.933594-9.109375 11.398438-9.109375 18.496094 0 10.144532 7.003906 19.035156 17.484375 23.886719 3.539063 1.652344 7.476563 2.84375 11.671875 3.460937 2.207031.316407 4.476562.496094 6.804688.496094 2.324218 0 4.59375-.175781 6.800781-.496094 4.195312-.617187 8.132812-1.808593 11.671875-3.460937 10.484375-4.851563 17.484375-13.742187 17.484375-23.886719.003906-7.097656-3.457031-13.558594-9.105469-18.496094zm0 0" fill="#87796f"/><path d="m298.226562 402.679688c3.902344-14.253907 5.960938-30.859376 5.960938-48.171876 0-48.523437-15.898438-86.535156-36.195312-86.535156-11.089844 0-20.972657 10.875-27.828126 30.613282-.542968 1.566406.285157 3.273437 1.847657 3.816406 1.570312.542968 3.277343-.285156 3.820312-1.851563 5.78125-16.640625 14.0625-26.578125 22.160157-26.578125 14.582031 0 30.195312 32.363282 30.195312 80.535156 0 17.484376-2.152344 34.183594-6.226562 48.292969-.324219 1.121094.03125 2.328125.910156 3.09375 5.210937 4.550781 8.082031 10.316407 8.082031 16.234375 0 8.558594-6.035156 16.667969-15.75 21.167969-3.363281 1.570313-7.011719 2.648437-10.835937 3.210937-4.292969.617188-8.457032.617188-12.742188.003907-3.832031-.566407-7.480469-1.644531-10.847656-3.21875-9.710938-4.496094-15.742188-12.601563-15.742188-21.164063 0-5.917968 2.871094-11.683594 8.082032-16.234375.878906-.765625 1.230468-1.972656.910156-3.09375-4.074219-14.113281-6.230469-30.8125-6.230469-48.292969 0-9.792968.679687-19.378906 2.015625-28.496093.242188-1.640625-.890625-3.164063-2.53125-3.40625-1.648438-.246094-3.164062.894531-3.40625 2.53125-1.375 9.40625-2.078125 19.289062-2.078125 29.371093 0 17.308594 2.058594 33.914063 5.960937 48.171876-5.640624 5.503906-8.722656 12.347656-8.722656 19.453124 0 10.921876 7.363282 21.121094 19.214844 26.605469 3.886719 1.8125 8.09375 3.0625 12.511719 3.710938 2.429687.351562 4.863281.527343 7.230469.527343 2.371093 0 4.800781-.175781 7.234374-.527343 4.410157-.648438 8.621094-1.898438 12.5-3.707031 11.859376-5.488282 19.222657-15.6875 19.222657-26.609376.003906-7.105468-3.082031-13.949218-8.722657-19.453124zm0 0" fill="#3a312a"/><path d="m257.339844 426.664062c-.433594-2.566406-4.121094-2.566406-4.554688 0l-3.269531 19.355469c3.539063 1.652344 7.480469 2.84375 11.675781 3.460938zm0 0" fill="#3a312a"/><path d="m283.199219 426.664062c-.433594-2.566406-4.121094-2.566406-4.554688 0l-3.851562 22.8125c4.199219-.613281 8.136719-1.808593 11.675781-3.457031zm0 0" fill="#3a312a"/><path d="m177.019531 43.917969c-19.144531-34.824219-69.558593-43.8750002-76.292969-40.171875-5.507812 3.027344-26.109374 51.117187-6.964843 85.941406s45.5625 38.730469 68.550781 26.089844c22.992188-12.636719 33.851562-37.03125 14.707031-71.859375zm0 0" fill="#87796f"/><path d="m179.648438 42.472656c-19.882813-36.171875-71.6875-46.125-80.367188-41.355468-6.871094 3.777343-28.394531 53.191406-8.148438 90.015624 9.421876 17.140626 21.050782 27.996094 34.558594 32.261719 4.167969 1.316407 8.472656 1.972657 12.851563 1.972657 8.269531 0 16.808593-2.335938 25.214843-6.957032 12.855469-7.066406 21.363282-17.257812 24.609376-29.46875 3.636718-13.695312.703124-29.328125-8.71875-46.46875zm2.917968 44.925782c-2.808594 10.589843-10.3125 19.492187-21.699218 25.753906-11.382813 6.257812-22.921876 7.820312-33.371094 4.519531-11.988282-3.789063-22.457032-13.6875-31.109375-29.429687-18.097657-32.921876 1.339843-78.601563 5.78125-81.867188.5-.253906 1.527343-.394531 2.980469-.394531 11.933593 0 52.714843 9.324219 69.238281 39.382812 8.660156 15.742188 11.410156 29.886719 8.179687 42.035157zm0 0" fill="#3a312a"/><path d="m157.128906 50.84375c-10.773437-19.597656-39.148437-24.691406-42.9375-22.609375-3.101562 1.703125-14.695312 28.769531-3.921875 48.371094 10.773438 19.601562 25.644531 21.800781 38.585938 14.683593 12.9375-7.113281 19.050781-20.84375 8.273437-40.445312zm0 0" fill="#f16c7a"/><path d="m159.757812 49.398438c-11.046874-20.097657-41-27.101563-47.011718-23.792969-4.949219 2.71875-16.390625 31.910156-5.109375 52.445312 7.203125 13.101563 17.070312 19.972657 27.882812 19.972657 4.789063 0 9.765625-1.351563 14.777344-4.105469 7.554687-4.152344 12.566406-10.167969 14.484375-17.398438 2.140625-8.042969.445312-17.167969-5.023438-27.121093zm-.773437 25.582031c-1.488281 5.605469-5.492187 10.335937-11.578125 13.683593-13.414062 7.378907-25.671875 2.578126-34.511719-13.503906-9.46875-17.230468-.21875-40.859375 2.820313-44.289062 3.90625-.789063 29.078125 3.757812 38.785156 21.417968 4.703125 8.554688 6.210938 16.1875 4.484375 22.691407zm0 0" fill="#3a312a"/><path d="m353.710938 3.746094c-6.734376-3.7031252-57.148438 5.347656-76.289063 40.171875-19.144531 34.828125-8.285156 59.222656 14.707031 71.859375 22.992188 12.640625 49.40625 8.734375 68.550782-26.089844 19.144531-34.824219-1.457032-82.914062-6.96875-85.941406zm0 0" fill="#87796f"/><path d="m355.15625 1.117188c-8.679688-4.777344-60.480469 5.179687-80.367188 41.355468-17.761718 32.3125-11.824218 60.699219 15.890626 75.933594 8.40625 4.621094 16.941406 6.957031 25.210937 6.957031 4.382813 0 8.6875-.65625 12.855469-1.972656 13.511718-4.265625 25.136718-15.117187 34.558594-32.257813 20.246093-36.824218-1.273438-86.238281-8.148438-90.015624zm2.894531 87.125c-8.65625 15.742187-19.121093 25.640624-31.109375 29.429687-10.445312 3.296875-21.984375 1.738281-33.371094-4.519531-24.785156-13.625-29.710937-38.332032-13.523437-67.789063 18.542969-33.730469 67.625-41.34375 72.144531-39.03125 4.519532 3.308594 23.957032 48.988281 5.859375 81.910157zm0 0" fill="#3a312a"/><path d="m340.25 28.234375c-3.789062-2.082031-32.164062 3.011719-42.941406 22.609375-10.773438 19.601562-4.664063 33.332031 8.28125 40.445312 12.9375 7.117188 27.804687 4.917969 38.582031-14.683593 10.773437-19.601563-.820313-46.667969-3.921875-48.371094zm0 0" fill="#f16c7a"/><path d="m341.695312 25.605469c-6.019531-3.300781-35.964843 3.699219-47.011718 23.796875-5.472656 9.953125-7.164063 19.074218-5.027344 27.121094 1.921875 7.226562 6.929688 13.242187 14.484375 17.398437 4.933594 2.707031 9.949219 4.078125 14.820313 4.078125 2.597656 0 5.152343-.386719 7.632812-1.171875 7.9375-2.503906 14.734375-8.824219 20.203125-18.777344 11.289063-20.53125-.152344-49.722656-5.101563-52.445312zm-.152343 49.554687c-4.703125 8.554688-10.339844 13.917969-16.753907 15.945313-5.527343 1.746093-11.667968.902343-17.753906-2.441407-6.085937-3.34375-10.089844-8.078124-11.578125-13.683593-1.726562-6.503907-.21875-14.136719 4.484375-22.691407 9.066406-16.5 31.625-21.550781 37.640625-21.550781.476563 0 .851563.03125 1.105469.09375 3.003906 3.277344 12.367188 27.027344 2.855469 44.328125zm0 0" fill="#3a312a"/><path d="m345.898438 179.257812c-.21875-.242187-.4375-.480468-.65625-.742187.238281-3.417969.359374-6.839844.359374-10.339844 0-14.121093-2.0625-27.71875-5.921874-40.460937-11.878907-39.539063-40.738282-70.71875-77.199219-83.277344-11.359375-3.921875-23.441407-6.042969-35.980469-6.042969-12.101562 0-23.78125 1.960938-34.78125 5.640625-37 12.28125-66.378906 43.703125-78.398438 83.703125-3.839843 12.738281-5.921874 26.316407-5.921874 40.4375 0 3.800781.160156 7.539063.460937 11.242188.019531.179687.019531.359375.039063.539062-10 11.339844-15.679688 24.257813-15.679688 38 0 4.320313.5625 8.417969 1.640625 12.300781 10.121094 36.519532 65.980469 54.417969 133.359375 54.417969 67.382812 0 123.242188-17.898437 133.363281-54.417969 1.078125-3.882812 1.636719-7.980468 1.636719-12.300781 0-14.039062-5.917969-27.199219-16.320312-38.699219zm0 0" fill="#fce8cb"/><path d="m348.316406 177.457031c.191406-3.078125.285156-6.125.285156-9.28125 0-14.171875-2.039062-28.078125-6.046874-41.324219-12.171876-40.511718-41.742188-72.382812-79.09375-85.25-11.933594-4.117187-24.367188-6.207031-36.960938-6.207031-12.214844 0-24.234375 1.953125-35.722656 5.792969-37.964844 12.601562-67.992188 44.632812-80.328125 85.683594-4.011719 13.3125-6.046875 27.210937-6.046875 41.304687 0 3.484375.132812 7.050781.410156 10.761719-10.203125 11.949219-15.589844 25.417969-15.589844 39.019531 0 4.527344.585938 8.933594 1.746094 13.097657 9.824219 35.457031 60.761719 56.621093 136.253906 56.621093 75.488282 0 126.425782-21.164062 136.25-56.617187 1.160156-4.171875 1.75-8.582032 1.75-13.101563 0-14.179687-5.839844-28.171875-16.90625-40.5zm9.375 52c-8.929687 32.210938-58.921875 52.21875-130.46875 52.21875-71.550781 0-121.542968-20.007812-130.46875-52.222656-1.019531-3.644531-1.53125-7.511719-1.53125-11.496094 0-12.664062 5.023438-24.78125 14.929688-36.015625.5625-.640625.824218-1.589844.722656-2.4375-.007812-.140625-.015625-.277344-.023438-.328125-.300781-3.691406-.453124-7.394531-.453124-11 0-13.507812 1.953124-26.824219 5.792968-39.578125 11.773438-39.183594 40.363282-69.734375 76.480469-81.71875 10.878906-3.636718 22.261719-5.484375 33.828125-5.484375 11.925781 0 23.699219 1.976563 35.003906 5.875 35.535156 12.242188 63.683594 42.636719 75.300782 81.316407 3.84375 12.683593 5.792968 26.003906 5.792968 39.589843 0 3.441407-.117187 6.757813-.351562 10.128907-.054688.777343.195312 1.546874.699218 2.140624.246094.292969.496094.566407.730469.820313 10.3125 11.40625 15.542969 23.75 15.542969 36.6875.003906 3.980469-.511719 7.851563-1.527344 11.503906zm0 0" fill="#3a312a"/><path d="m191.71875 44.035156c-37 12.28125-66.378906 43.703125-78.398438 83.703125-3.839843 12.738281-5.921874 26.316407-5.921874 40.4375 0 3.800781.160156 7.539063.460937 11.242188.019531.179687.019531.359375.039063.539062-10 11.339844-15.679688 24.257813-15.679688 38 0 4.320313.5625 8.417969 1.640625 12.300781 8.621094 3.71875 17.820313 5.71875 27.359375 5.71875 49.300781 0 89.242188-53.28125 89.242188-119 0-27.480468-6.980469-52.800781-18.742188-72.941406zm0 0" fill="#87796f"/><path d="m194.3125 42.523438c-.710938-1.226563-2.183594-1.777344-3.535156-1.335938-37.964844 12.601562-67.992188 44.632812-80.328125 85.683594-4.011719 13.3125-6.046875 27.210937-6.046875 41.304687 0 3.484375.132812 7.050781.410156 10.761719-10.203125 11.949219-15.589844 25.417969-15.589844 39.019531 0 4.527344.585938 8.933594 1.746094 13.101563.246094.875.871094 1.59375 1.703125 1.953125 9.175781 3.957031 18.78125 5.960937 28.550781 5.960937 50.863282 0 92.238282-54.726562 92.238282-122 0-27.25-6.621094-52.996094-19.148438-74.449218zm-73.089844 190.453124c-8.472656 0-16.820312-1.652343-24.832031-4.910156-.777344-3.234375-1.167969-6.628906-1.167969-10.109375 0-12.664062 5.023438-24.78125 14.929688-36.015625.5625-.640625.824218-1.589844.722656-2.4375-.007812-.140625-.015625-.277344-.023438-.328125-.300781-3.691406-.453124-7.394531-.453124-11 0-13.507812 1.953124-26.824219 5.792968-39.578125 11.523438-38.339844 39.140625-68.414062 74.15625-80.917968 11.203125 20.105468 17.109375 44.003906 17.109375 69.292968.003907 63.964844-38.683593 116.003906-86.234375 116.003906zm0 0" fill="#3a312a"/><path d="m345.898438 179.257812c-.21875-.242187-.4375-.480468-.65625-.742187.238281-3.417969.359374-6.839844.359374-10.339844 0-14.121093-2.0625-27.71875-5.921874-40.460937-11.878907-39.539063-40.738282-70.71875-77.199219-83.277344-11.601563 20.078125-18.5 45.238281-18.5 72.539062 0 65.71875 39.941406 119 89.238281 119 9.542969 0 18.742188-2 27.363281-5.71875 1.078125-3.882812 1.636719-7.980468 1.636719-12.300781 0-14.039062-5.917969-27.199219-16.320312-38.699219zm0 0" fill="#87796f"/><path d="m348.316406 177.457031c.191406-3.078125.285156-6.125.285156-9.28125 0-14.171875-2.039062-28.078125-6.046874-41.324219-12.171876-40.511718-41.742188-72.382812-79.097657-85.25-1.347656-.46875-2.855469.089844-3.574219 1.332032-12.363281 21.410156-18.902343 47.011718-18.902343 74.042968 0 67.273438 41.378906 122 92.242187 122 9.769532 0 19.375-2.007812 28.546875-5.964843.832031-.359375 1.457031-1.074219 1.703125-1.949219 1.160156-4.171875 1.75-8.582031 1.75-13.105469 0-14.179687-5.839844-28.171875-16.90625-40.5zm9.734375 50.609375c-8.011719 3.257813-16.355469 4.910156-24.828125 4.910156-47.550781 0-86.242187-52.039062-86.242187-116 0-25.066406 5.828125-48.816406 16.871093-68.863281 34.421876 12.75 61.59375 42.652344 72.957032 80.472657 3.84375 12.683593 5.792968 26.003906 5.792968 39.589843 0 3.445313-.117187 6.757813-.351562 10.128907-.054688.78125.195312 1.546874.699219 2.144531.246093.292969.496093.566406.730469.820312 10.3125 11.40625 15.542968 23.75 15.542968 36.6875 0 3.476563-.394531 6.871094-1.171875 10.109375zm0 0" fill="#3a312a"/><path d="m227.269531 170.621094c-10.570312-.042969-19.164062 5.058594-19.191406 11.402344-.03125 6.34375 8.496094 16.628906 19.066406 16.675781 10.574219.046875 19.191407-10.164063 19.21875-16.507813.027344-6.339844-8.519531-11.523437-19.09375-11.570312zm0 0" fill="#3a312a"/><path d="m227.21875 193c0 13.660156-10.347656 24.875-23.632812 26.257812.25 16.453126 10.738281 29.679688 23.632812 29.679688 12.898438 0 23.386719-13.222656 23.636719-29.679688-13.289063-1.382812-23.636719-12.597656-23.636719-26.257812zm0 0" fill="#f16c7a"/><path d="m251.164062 216.277344c-11.941406-1.246094-20.945312-11.25-20.945312-23.277344 0-1.65625-1.34375-3-3-3s-3 1.34375-3 3c0 12.027344-9.003906 22.03125-20.945312 23.277344-1.542969.160156-2.710938 1.472656-2.6875 3.027344.277343 18.300781 11.976562 32.632812 26.632812 32.632812s26.355469-14.332031 26.632812-32.632812c.027344-1.554688-1.140624-2.867188-2.6875-3.027344zm-23.941406 29.660156c-10.492187 0-19.300781-10.605469-20.5-24.125 9.109375-1.84375 16.574219-7.8125 20.5-15.816406 3.925782 8.003906 11.386719 13.972656 20.496094 15.816406-1.195312 13.519531-10.007812 24.125-20.496094 24.125zm0 0" fill="#3a312a"/><path d="m227.222656 190c-1.65625 0-3 1.34375-3 3 0 12.027344-9.003906 22.03125-20.988281 23.28125-.753906.089844-1.570313.132812-2.429687.132812-12.910157 0-23.414063-10.503906-23.414063-23.414062 0-1.65625-1.34375-3-3-3s-3 1.34375-3 3c0 16.21875 13.199219 29.414062 29.414063 29.414062 1.09375 0 2.148437-.058593 3.09375-.171874 15.007812-1.5625 26.324218-14.132813 26.324218-29.242188 0-1.65625-1.34375-3-3-3zm0 0" fill="#3a312a"/><path d="m280.050781 190c-1.65625 0-3 1.34375-3 3 0 12.910156-10.503906 23.414062-23.414062 23.414062-.859375 0-1.675781-.042968-2.46875-.136718-11.941407-1.246094-20.945313-11.25-20.945313-23.277344 0-1.65625-1.34375-3-3-3s-3 1.34375-3 3c0 15.109375 11.316406 27.679688 26.28125 29.238281.988282.117188 2.039063.175781 3.132813.175781 16.21875 0 29.414062-13.195312 29.414062-29.414062 0-1.65625-1.34375-3-3-3zm0 0" fill="#3a312a"/><path d="m174.390625 179.5625c0-8.582031-11.128906-15.539062-24.859375-15.539062s-24.859375 6.957031-24.859375 15.539062 11.128906 15.539062 24.859375 15.539062 24.859375-6.957031 24.859375-15.539062zm0 0" fill="#f5978a"/><path d="m304.910156 164.023438c-13.730468 0-24.859375 6.957031-24.859375 15.539062s11.128907 15.539062 24.859375 15.539062c13.730469 0 24.859375-6.957031 24.859375-15.539062s-11.128906-15.539062-24.859375-15.539062zm0 0" fill="#f5978a"/><path d="m186.824219 137.839844c-6.011719 0-10.878907 4.871094-10.878907 10.875 0 6.007812 4.871094 10.878906 10.878907 10.878906 6.003906 0 10.875-4.871094 10.875-10.878906 0-6.003906-4.871094-10.875-10.875-10.875zm0 0" fill="#3a312a"/><path d="m267.617188 137.839844c-6.003907 0-10.875 4.871094-10.875 10.875 0 6.007812 4.871093 10.878906 10.875 10.878906 6.007812 0 10.878906-4.871094 10.878906-10.878906 0-6.003906-4.871094-10.875-10.878906-10.875zm0 0" fill="#3a312a"/><path d="m318.097656 405.894531c-.878906-.765625-1.230468-1.96875-.910156-3.089843.378906-1.308594.730469-2.675782 1.078125-4.039063 1.902344-6.589844 3.210937-13.988281 3.921875-22.078125.820312-7.394531 1.230469-14.832031 1.230469-22.175781 0-30.785157-6.972657-59.410157-17.769531-72.933594-.132813-.171875-.253907-.359375-.351563-.558594-.453125-.933593-.921875-1.851562-1.386719-2.765625-5.011718 1.457032-10.292968 2.753906-15.828125 3.878906 9.769531 15.339844 16.105469 41.757813 16.105469 72.378907 0 17.304687-2.058594 33.910156-5.960938 48.171875 5.640626 5.503906 8.722657 12.347656 8.722657 19.453125 0 9.804687-5.949219 19.015625-15.738281 24.769531 2.785156.125 5.554687.015625 8.378906-.390625 3.824218-.5625 7.472656-1.644531 10.835937-3.210937 9.714844-4.5 15.75-12.609376 15.75-21.167969.003907-5.925781-2.867187-11.691407-8.078125-16.242188zm0 0" fill="#695b51"/><path d="m226.5 41.394531c-1.378906 0-2.78125.023438-4.160156.082031 3.441406.820313 6.820312 1.820313 10.140625 2.960938 7.519531 2.597656 14.71875 5.980469 21.5 10.058594 1.261719-2.839844 2.640625-5.601563 4.101562-8.320313-10.242187-3.160156-20.839843-4.78125-31.582031-4.78125zm0 0" fill="#decaad"/><path d="m333.21875 238.976562c-2 0-4-.082031-5.976562-.261718-10.023438 26.261718-50.703126 38.082031-50.140626 39.222656 40.640626-6.582031 68.859376-21.601562 78.4375-42.582031-7.257812 2.402343-14.738281 3.621093-22.320312 3.621093zm0 0" fill="#decaad"/><path d="m343.679688 181.277344c-.28125-.320313-.5-.5625-.71875-.820313-.519532-.601562-.761719-1.359375-.71875-2.140625.238281-3.398437.359374-6.71875.359374-10.140625 0-13.578125-1.941406-26.898437-5.800781-39.578125-11.359375-37.839844-38.519531-67.742187-72.941406-80.480468-1.71875 3.121093-3.320313 6.339843-4.757813 9.640624 23.640626 15.9375 41.777344 40.660157 50.578126 69.957032 3.621093 11.941406 5.660156 24.640625 5.902343 37.820312 8.398438 2.480469 14.199219 7.820313 14.199219 14.019532 0 3.882812-2.261719 7.402343-6 10.121093 5.460938 8.800781 8.4375 18.320313 8.4375 28.28125 0 4.320313-.558594 8.417969-1.636719 12.300781-.242187.878907-.523437 1.757813-.820312 2.617188 1.136719.0625 2.296875.101562 3.457031.101562 8.480469 0 16.820312-1.660156 24.820312-4.921874.78125-3.21875 1.179688-6.617188 1.179688-10.097657 0-12.941406-5.238281-25.28125-15.539062-36.679687zm0 0" fill="#695b51"/></svg>